<?xml version="1.0" standalone="no"?>
<!DOCTYPE svg PUBLIC "-//W3C//DTD SVG 1.1//EN" "http://www.w3.org/Graphics/SVG/1.1/DTD/svg11.dtd" >
<svg xmlns="http://www.w3.org/2000/svg">
<metadata></metadata>
<defs>
<font id="aruallight" horiz-adv-x="1314" >
<font-face units-per-em="2048" ascent="1536" descent="-512" />
<missing-glyph horiz-adv-x="823" />
<glyph horiz-adv-x="2048" />
<glyph horiz-adv-x="2048" />
<glyph unicode="&#xd;" horiz-adv-x="823" />
<glyph unicode=" "  horiz-adv-x="823" />
<glyph unicode="&#x09;" horiz-adv-x="823" />
<glyph unicode="&#xa0;" horiz-adv-x="823" />
<glyph unicode="!" horiz-adv-x="327" d="M135 0v166h55v-166h-55zM135 401v1338h55v-1338h-55z" />
<glyph unicode="&#x22;" horiz-adv-x="561" d="M141 1702v209h49v-209h-49zM356 1702v209h58v-209h-58z" />
<glyph unicode="#" horiz-adv-x="1671" d="M98 203l123 407h-98v62h117l204 690h-260v55h279l153 494q4 14 21.5 9t21.5 -9q4 0 9 -4q2 -2 4 -2l-142 -488h740q4 0 8 8q2 4 4 11l150 487h18q4 0 10 -2t13 -4q8 -4 14 -6v-6l-144 -469v-19h230v-55h-254l-203 -690h395v-62h-419l-129 -438h-13q-14 0 -26 6 q-8 2 -17 6v6l123 414h-747l-136 -438h-6q-4 0 -10 2q-12 4 -14 4q-14 4 -18.5 8t-0.5 23zM301 672h748l208 684h-745z" />
<glyph unicode="$" horiz-adv-x="1308" d="M98 598h56q4 -74 34.5 -136.5t78.5 -111.5t111.5 -84t133.5 -51q18 -4 53 -10t58 -2v809q-4 0 -11 2q-12 4 -20 4q-84 14 -173 41.5t-155 87.5q-51 47 -81.5 89t-59.5 103q-35 86 -24.5 172t51 162t108.5 135.5t150 92.5q55 23 105 30.5t116 18.5v141l55 -6v-129l6 -6 q70 -10 138.5 -25.5t127.5 -48.5q53 -29 100.5 -69t83.5 -91t54 -109.5t14 -119.5h-49q-14 70 -35.5 127t-68.5 112q-66 80 -160 114t-193 48h-10q-8 0 -8 -6v-803l4 -4q2 -2 8 -2q92 -18 168 -38.5t154 -71.5q35 -23 67.5 -56t59 -71.5t44 -81.5t19.5 -88q0 -29 2 -75 t-8 -79q-23 -86 -75 -151.5t-120.5 -111.5t-150.5 -74t-166 -34l-6 -6v-135h-55v141q-90 0 -175 28t-156 79t-122 122.5t-72 159.5q-4 18 -5 34t-1 34zM160 1419q0 -4 2 -10q4 -12 4 -14q0 -8 6 -21q2 -8 6 -16q41 -98 123 -164.5t186 -95.5q37 -10 68 -16.5t68 -2.5v809 q-29 4 -65 -2t-58 -16q-117 -33 -207 -110t-127 -193q0 -2 -4 -15q-2 -6 -2 -10v-123zM684 209q0 -10 25.5 -8t56.5 8t58.5 14t31.5 10q113 43 188.5 124t99 178.5t-10 195.5t-140.5 176q-23 16 -61.5 37t-82.5 38t-86 26.5t-73 3.5l-6 -6v-797z" />
<glyph unicode="%" horiz-adv-x="1640" d="M115 1471.5q-2 58.5 17.5 112.5t61.5 99.5t107 69.5q37 14 76 13t80 -1q33 0 66.5 -18t56.5 -37q59 -53 84.5 -116.5t22.5 -127t-31.5 -121t-77 -95.5t-112.5 -53.5t-140 7.5q-68 20 -114 61.5t-70.5 94.5t-26.5 111.5zM129 408v12l1346 1290l36 -37l-1351 -1296z M172 1462q10 -70 56 -127t116 -75q45 -12 93 -4t89 32.5t70 62.5t33 87q4 43 -6.5 90t-34 86t-59 65.5t-85.5 30.5q-47 4 -95 -3t-85 -40q-41 -37 -71.5 -91t-20.5 -114zM946 642.5q8 70.5 45 123.5t94.5 86t122 39t132 -18.5t122.5 -88.5q23 -23 39.5 -59.5t16.5 -69.5 q0 -41 2 -67.5t-9 -63.5q-14 -55 -50 -97t-84 -67.5t-103.5 -34.5t-108.5 3q-66 14 -120 60t-76 106q-31 78 -23 148.5zM1006 582q4 -76 56 -128.5t122 -70.5q72 -18 134 10.5t101 83.5t44 125t-38 133q-53 74 -127.5 92.5t-142.5 -6t-112 -87t-37 -152.5z" />
<glyph unicode="&#x26;" horiz-adv-x="1832" d="M123.5 827.5q17.5 112.5 75 215t151.5 178.5q4 4 22.5 15t22.5 15t15.5 11.5t15.5 7.5h6l14 -21q4 -8 8.5 -16t2.5 -12q-121 -74 -190.5 -180.5t-86 -225.5t19.5 -241.5t126 -229.5q39 -41 87 -73.5t99 -55.5q70 -33 143.5 -40t151.5 -3q61 4 120.5 26.5t114 57.5 t98.5 80t74 96q2 4 6.5 11.5t8.5 15.5q6 8 10 16l-6 12l-795 850q-37 43 -57.5 102.5t-24.5 114.5q-4 98 38 179.5t112 140.5q59 53 134 66.5t148 9.5q41 0 82 -18.5t74 -39.5q59 -37 98 -91t57.5 -117.5t14.5 -132t-29 -132.5q-2 -4 -10 -20.5t-18 -32.5t-19.5 -27.5 t-13.5 -7.5l-37 31q10 16 19 33q8 12 14 25.5t10 17.5q4 14 14.5 36.5t10.5 36.5v123q0 16 -6.5 36t-16.5 39.5t-21.5 36.5t-23.5 30q-68 74 -153.5 100.5t-166.5 10t-147.5 -76t-93.5 -157.5q-23 -78 -2.5 -159t76.5 -138l764 -813l303 671l-6 7h-74v55h233v-49h-80 l-327 -733q6 -8 14 -17q6 -8 12.5 -15t10.5 -11q47 -49 90 -92.5t89 -78t98 -60t118 -42.5v-49q-37 -6 -81 7.5t-87 38t-82 54t-63 54.5q-10 6 -31 26.5t-43.5 43l-43 43t-26.5 30.5h-6q-51 -88 -121.5 -151.5t-154.5 -102.5t-178.5 -53t-192.5 -2q-59 10 -111.5 30.5 t-103.5 49.5q-61 33 -111.5 81t-87.5 105q-68 100 -91.5 216t-6 228.5z" />
<glyph unicode="'" horiz-adv-x="346" d="M141 1702v209h56v-209h-56z" />
<glyph unicode="(" horiz-adv-x="475" d="M80 860q10 176 80 357q4 12 19.5 49t33.5 80t35.5 85t27.5 62l43 86l7 6q6 4 23.5 -8t21.5 -16v-7q-63 -129 -115.5 -259t-85.5 -264t-38 -272t28 -284q2 -16 10 -48t17.5 -65.5t17.5 -61.5t10 -34l156 -432q2 -6 -5.5 -13t-16.5 -11.5t-18 -4.5t-12 5l-6 12 q-70 172 -128 343t-86.5 345t-18.5 350z" />
<glyph unicode=")" horiz-adv-x="481" d="M98 1581q0 4 19.5 11t23.5 7q12 0 13 -6l178 -485q2 -6 7 -21.5t9 -34t9 -37t8 -26.5q51 -223 33.5 -436t-103.5 -426q-2 -4 -17.5 -39t-35 -80t-39 -92t-31.5 -74q0 -4 -6 -12t-6 -12h-6q-4 0 -18.5 7t-18.5 11q-6 0 -6 12q57 121 108 246t85 254t42 261t-20 270 q-4 20 -13.5 59t-19.5 79t-18.5 71.5t-10.5 37.5z" />
<glyph unicode="*" horiz-adv-x="925" d="M80 963v55h297v6q-2 4 -6 10q-4 4 -7.5 7t-5.5 8q-4 6 -24.5 29.5t-44 50t-44 50t-24.5 29.5q-10 8 -8 18.5t9 17.5t16.5 11.5t13.5 1.5q20 -18 52 -57t64.5 -77t58.5 -64.5t36 -22.5v283h55v-277h6q8 12 34 42t55.5 63t54 62.5t34.5 41.5q12 12 19 6l31 -30l-166 -203 v-6h239v-55h-288l-13 -13v-6l228 -278l-37 -37l-13 12q-6 6 -31.5 37t-54 64.5t-54 64.5t-32.5 37q-4 4 -6 7t-6 -1v-246h-55v252h-12l-25 -25q-4 -6 -26.5 -31.5t-48 -54t-48 -54t-27.5 -32.5q-23 -29 -34 -25.5t-33 32.5l217 260q4 4 8 10q6 10 4 14l-6 13h-352z" />
<glyph unicode="+" horiz-adv-x="1042" d="M49 451v67h438v432h62v-432h444v-67h-444v-439h-62v439h-438z" />
<glyph unicode="," horiz-adv-x="309" d="M74 -297l86 297h61l-86 -303q-4 -10 -21.5 -5t-21.5 5z" />
<glyph unicode="-" horiz-adv-x="931" d="M141 451v61h641v-61h-641z" />
<glyph unicode="." horiz-adv-x="395" d="M141 0v104h105v-104h-105z" />
<glyph unicode="/" horiz-adv-x="870" d="M43 -186l709 1882q8 27 20 23.5t35 -11.5q6 0 10 -4q2 -2 4 -2l-661 -1763q-59 -152 -65.5 -150t-20.5 6q-4 2 -9.5 4t-9.5 4l-12 4v7z" />
<glyph unicode="0" horiz-adv-x="1683" d="M122 1079.5q9 141.5 47 278.5t107 264q59 106 150.5 191t202.5 137q45 20 99 30.5t110.5 10.5t109.5 -10.5t101 -30.5q137 -66 235 -171.5t160.5 -235.5t90.5 -277.5t23.5 -297t-38 -294t-95.5 -266.5q-49 -96 -121.5 -179.5t-161.5 -140.5t-193.5 -81t-215.5 -1 q-94 18 -177 67.5t-150.5 119t-118.5 153.5t-84 172q-49 137 -69.5 278.5t-11.5 283zM181 1075.5q-9 -141.5 12.5 -280t75 -267.5t139.5 -237q59 -76 140 -137.5t173 -79.5q164 -33 292 20t222 157.5t154.5 243t91.5 277.5q18 90 19 194.5t-14.5 211t-46 206t-77.5 177.5 q-66 111 -152 201.5t-211 138.5q-117 41 -234.5 21.5t-215.5 -89.5q-121 -90 -201 -217t-121 -270q-37 -129 -46 -270.5z" />
<glyph unicode="1" horiz-adv-x="610" d="M12 1808v56h457v-1864h-55v1808h-402z" />
<glyph unicode="2" horiz-adv-x="1263" d="M111 1352q-4 47 9 98t27 98q23 59 62 110.5t86 98.5q57 53 131 87t147 38q59 4 106.5 3t102.5 -15q90 -23 168 -77t129 -128q78 -111 92.5 -216.5t-14.5 -207.5t-87 -202.5t-126 -198.5q-154 -211 -322.5 -403.5t-351.5 -375.5h877v-61h-1030l561 598q4 6 27.5 37 t53 67.5t58.5 73.5t45 58q4 6 19.5 26.5t32 45t33 47t22.5 34.5q41 66 84 144.5t57 158.5q14 74 1 148.5t-50 140.5q-49 86 -123 143.5t-162 82t-181 15t-181 -56.5q-117 -66 -175.5 -174t-72.5 -237h-55z" />
<glyph unicode="3" horiz-adv-x="1202" d="M25 0v61h604q41 0 91 16.5t89 39.5q109 63 160 162.5t48 207t-58.5 206t-161.5 159.5q-43 23 -95.5 38t-103.5 11v62q98 2 178 45t135.5 108.5t83 147.5t21.5 165.5t-49 161.5t-127 135q-39 29 -92.5 55.5t-100.5 26.5h-567v56h567q37 0 73 -11.5t68 -25.5 q92 -43 159 -116t99.5 -162t29.5 -187t-46 -191q-23 -51 -61.5 -95t-79.5 -77q-10 -6 -26.5 -15t-34 -18.5t-33 -18.5t-19.5 -15q61 -33 115.5 -72t95.5 -96q70 -98 84 -215t-20.5 -222.5t-115.5 -189.5t-202 -119q-66 -18 -135.5 -18h-134.5h-438z" />
<glyph unicode="4" d="M55 1364v500h62v-500q0 -16 7 -37.5t17.5 -45.5t21.5 -44t21 -35q47 -68 115 -113t146.5 -66.5t162.5 -21.5t162 23t145.5 68t114.5 110q12 18 25.5 41t26 47.5t20.5 50t8 48.5v475h55l-6 -1864h-49v1184q-4 2 -26.5 -18.5t-51 -47t-56.5 -53.5t-44 -35 q-92 -55 -205 -75.5t-222.5 -4t-207.5 69.5t-162 145q-29 41 -54.5 94.5t-25.5 104.5z" />
<glyph unicode="5" horiz-adv-x="1413" d="M98 604h56q12 -170 98 -297t213 -193.5t278.5 -59.5t292.5 106q66 47 120 116.5t77 143.5q35 115 27.5 223.5t-48.5 200.5t-112.5 163.5t-162.5 112.5t-197.5 45t-221.5 -37q-4 -2 -14 -6t-20.5 -8t-18.5 -10t-8 -12h-56v802h62h99.5h756.5v-55h-856v-661h6 q41 14 83 28.5t89 14.5h141q86 -4 159 -37t138 -80q59 -41 108.5 -102.5t82.5 -131.5q55 -117 60 -232.5t-29.5 -218t-103.5 -187.5t-162 -142t-206.5 -80.5t-236.5 -3.5q-102 16 -194.5 72.5t-161 138.5t-106.5 182.5t-32 204.5z" />
<glyph unicode="6" horiz-adv-x="1370" d="M86 457q-23 111 1 203t79 186q8 16 25.5 41.5t34 52.5t29.5 47.5t15 24.5l512 616l279 285l37 -37l-574 -637l-73 -92v-6h12q66 14 123 24.5t123 5.5q141 -6 250.5 -69.5t180 -162.5t98.5 -220t9.5 -242t-88 -229.5t-196.5 -179.5q-94 -51 -200 -68.5t-208 0.5 q-86 16 -164 57t-140.5 101.5t-105.5 136.5t-59 162zM135 604q-12 -86 15.5 -171t80 -156.5t124 -125.5t151.5 -77q10 -4 43 -11.5t43 -7.5q180 -14 315 52.5t228 226.5q18 33 36.5 81t18.5 85v166q0 6 -4 22.5t-9.5 33.5t-10.5 32.5t-7 23.5q-35 82 -96.5 151.5t-139 115 t-167.5 62.5t-183 -3q-78 -18 -148.5 -46t-117.5 -102q-6 -12 -20.5 -34.5t-29.5 -46t-27.5 -43t-14.5 -23.5q-29 -47 -49.5 -100.5t-30.5 -104.5z" />
<glyph unicode="7" horiz-adv-x="1060" d="M49 1880v55h950l-772 -1912q-10 -18 -49 0q-4 0 -10 4t-2 8l735 1827v18h-852z" />
<glyph unicode="8" horiz-adv-x="1529" d="M110.5 559q-22.5 139 18.5 281q37 121 112.5 221t184.5 160l86 43q4 0 24.5 10t24.5 10q14 4 6 9t-12 10q-102 59 -145 155t-33 213q4 47 24.5 88t42.5 80q66 88 158 123t199 25q37 -4 70.5 -17.5t66.5 -32.5q63 -37 106 -96t59.5 -127.5t8.5 -141.5t-45 -134 q-14 -23 -32.5 -48.5t-41.5 -43.5q-2 -2 -10 -8.5t-17.5 -13.5t-17.5 -13t-10 -8l-6 -7q33 -20 67.5 -29.5t67.5 -27.5q127 -66 207 -164t115.5 -211.5t28.5 -234.5t-56 -232.5t-139 -204t-217 -149.5q-78 -37 -173.5 -44t-179.5 7q-143 23 -258.5 102.5t-188.5 195.5 t-95.5 255zM167 690.5q-5 -123.5 36 -239.5q27 -74 74 -139.5t107 -116t134 -83t154 -44.5q135 -18 253.5 18.5t210 112t148.5 180t71.5 220.5t-21.5 233.5t-132 222.5q-59 66 -135 110.5t-160 67.5q-61 14 -109 15t-114 -3q-72 -4 -140.5 -32.5t-129 -72.5t-108.5 -101.5 t-79 -118.5q-55 -106 -60 -229.5zM446.5 1548.5q16.5 -75.5 72 -138t159.5 -89.5q37 -10 77 -7t76 13q74 20 123.5 67.5t73 107t21.5 124t-29 123.5t-77 104t-124 66q-94 27 -171 0t-127 -84t-70.5 -134t-4 -152.5z" />
<glyph unicode="9" horiz-adv-x="1406" d="M108.5 1327q-8.5 78 8.5 160q23 117 82 217t157 172q121 82 256.5 105.5t262 -9.5t233 -120t168.5 -224q63 -139 47 -264t-90 -254q-6 -12 -20.5 -34.5t-30 -46t-27.5 -43t-14 -23.5l-340 -433l-488 -524l-43 43l500 543l174 211v6h-6q-4 0 -19.5 -4t-34 -8t-33.5 -8.5 t-20 -4.5q-66 -14 -135 -12t-136.5 19.5t-129 49t-111.5 79.5q-57 55 -102 119.5t-72.5 137t-36 150.5zM176 1432.5q-10 -109.5 21 -218.5q18 -68 59 -129t96.5 -110t121.5 -83t136 -46q51 -10 117 -10t130.5 13t120.5 42t89 78q33 47 60.5 90t56.5 94q23 41 49.5 96.5 t30.5 108.5q6 94 -19.5 179t-74 155.5t-117 122t-149.5 81t-170 33.5t-179 -22q-115 -33 -195.5 -103.5t-127 -166t-56.5 -205z" />
<glyph unicode=":" horiz-adv-x="382" d="M135 0v104h105v-104h-105zM135 629v104h105v-104h-105z" />
<glyph unicode=";" horiz-adv-x="315" d="M55 -291l80 273l4 8q4 10 8 10h56l-86 -303q-6 -8 -21 -4l-16 4q-8 0 -12 2t-7 4zM160 610v99h98v-99h-98z" />
<glyph unicode="?" horiz-adv-x="1257" d="M70 1165q-6 61 7 121t40.5 113t66.5 102t82 90q66 59 156 89t178 34q70 4 143.5 -13.5t135.5 -53.5q158 -88 222 -230.5t54 -318.5q-4 -55 -24.5 -109.5t-49.5 -101.5q-33 -59 -80 -105.5t-104 -78t-120.5 -52t-127.5 -28.5v-439h-61v500q78 4 142.5 20.5t135.5 53.5 q78 41 135.5 124t79.5 167q18 70 14.5 141.5t-26.5 140.5q-23 70 -68 129.5t-104 100.5q-98 70 -205.5 86t-208 -12.5t-183.5 -100.5t-132 -178q-18 -37 -25.5 -75t-11.5 -79q0 -6 -4 -22q-2 -8 -2 -15h-55zM588 -4h61v82h-61v-82z" />
<glyph unicode="@" horiz-adv-x="2375" d="M117.5 891q-13.5 133 9.5 263t81 251t148 217q98 104 206 175t225.5 113t245.5 58.5t267 11.5q211 -10 400.5 -101t335.5 -245q68 -72 119 -167t79.5 -201.5t32.5 -215t-22 -204.5q-18 -66 -47 -126.5t-70 -115.5q-23 -31 -61.5 -70.5t-86 -76.5t-98.5 -64.5t-100 -33 t-91 17t-69 86.5q-4 10 -8 24.5t-4 24.5q0 6 -1 26.5t-2 44t-2 44t-1 26.5h-7q-55 -106 -141 -172.5t-199 -103.5q-84 -29 -177 -10.5t-167 59.5q-123 68 -185 178.5t-73.5 235.5t26.5 248.5t118 218t197.5 143.5t267.5 25q84 -14 150.5 -60.5t121.5 -105.5q6 -6 14.5 -20.5 t17.5 -29t19 -27.5t23 -18v297h61v-993q0 -33 23.5 -60.5t56.5 -31.5q43 -4 86 12.5t81 44t71.5 60t58.5 61.5q68 74 103.5 162t46 180t-2 186.5t-43.5 182.5q-37 106 -99 194t-142 159t-175.5 123t-199.5 85q-113 33 -217.5 40t-220.5 3q-125 -4 -250 -50t-232 -112 q-121 -74 -213 -180.5t-151 -230.5q-61 -131 -73.5 -265.5t16 -261.5t94 -242.5t159 -211t210 -165t249.5 -102.5q6 -2 27.5 -6t47.5 -9t49.5 -9t35.5 -6q6 0 19.5 -1t27.5 -2.5t25.5 -2.5t13.5 -1h1079v-61h-1091q-2 0 -17.5 1t-35 3l-39 4t-31.5 4q-137 16 -263 68.5 t-234.5 134.5t-194.5 188.5t-142 231.5q-53 123 -66.5 256zM729 1031.5q-33 -136.5 4 -267.5q16 -57 48 -112.5t76 -101.5t99.5 -78t116.5 -40q131 -18 240.5 34t181.5 145.5t98.5 216t-8.5 245.5q-18 66 -51 127.5t-84 108.5q-53 47 -112.5 76.5t-129.5 33.5 q-102 10 -197.5 -31.5t-160.5 -117.5q-88 -102 -121 -238.5z" />
<glyph unicode="A" horiz-adv-x="1558" d="M37 0l1337 1456h49v-1460h-45v1378l-1276 -1374h-65z" />
<glyph unicode="B" horiz-adv-x="1273" d="M131 -4v1460h346q49 0 101.5 -11t99.5 -30q59 -23 111.5 -54.5t93.5 -80.5q31 -37 44 -81t13 -90t-10 -93t-25 -90q0 -4 -3 -10.5t-3 -10.5q0 -2 -1 -3t-1 -3l-2 -2h-53v4q31 83 42 149q4 27 4 51q0 37 -10 71q-16 56 -60 100.5t-124 81.5q-59 29 -125.5 41t-132.5 12 h-256v-1411h-49zM567 782v49q26 1 51 0q82 0 164 -9q106 -13 201 -66q94 -53 138 -140q45 -86 53 -185q3 -30 2 -60q0 -69 -14 -141q-20 -102 -48 -189q-4 -12 -10 -25q-4 -8 -6 -16h-54q2 6 9.5 23.5t13.5 36t11 36t7 23.5q27 86 39 178q5 36 4 72q0 54 -10 105 q-18 85 -69.5 154.5t-147.5 110.5q-78 33 -164 40q-55 4 -109 4q-30 0 -61 -1z" />
<glyph unicode="C" horiz-adv-x="1533" d="M104 718q2 126 41 240.5t112 213t171 164.5q98 68 218 96q71 17 146 16q53 0 109 -8q160 -25 289 -125.5t205 -241.5q4 -6 14 -28.5t14 -32.5q0 -4 4.5 -12.5t4.5 -12.5q-10 -4 -22.5 -12t-23.5 -4q-33 78 -74.5 142.5t-103.5 123.5q-115 106 -265 142q-74 18 -148 18 q-77 0 -154 -19q-123 -31 -226.5 -112.5t-164.5 -192.5q-63 -115 -83 -237q-10 -59 -10 -117q-1 -62 11 -123q22 -117 79.5 -220.5t145.5 -179t203 -117.5q97 -35 207 -35q21 0 43 1q92 4 178 41t158.5 97.5t126 138t82.5 163.5l45 -16v-4q-16 -49 -40 -95t-53 -89 q-53 -76 -122.5 -133.5t-150.5 -93.5t-169 -51q-57 -10 -116 -10q-31 0 -62 3q-129 12 -239.5 74.5t-196.5 158.5q-47 51 -81 112.5t-59 127.5q-43 118 -43 238v11z" />
<glyph unicode="D" horiz-adv-x="1329" d="M131 -4v1460h240t241 -4q55 -6 105.5 -24.5t103.5 -41.5q37 -16 74 -40.5t68 -53.5q98 -88 159.5 -201.5t85.5 -242.5q16 -91 17 -186q1 -20 -1 -42q-4 -118 -39.5 -227.5t-102 -204t-169.5 -155.5q-41 -25 -95 -30q-30 -3 -58 -3q-23 0 -45 2v49q21 -2 42 -3 q83 0 147 40q80 49 136 126t86 173q30 97 40 199q4 44 5 88q1 58 -7 114q-12 100 -42 183q-49 135 -147 240.5t-236 154.5q-6 4 -25.5 10t-23.5 6q-10 2 -24.5 6.5t-28.5 7.5t-24.5 5t-12.5 2h-416v-1407h-53z" />
<glyph unicode="E" horiz-adv-x="1052" d="M131 0v1456h905v-45h-856v-563h355v-53h-355v-746h832v-49h-881z" />
<glyph unicode="F" horiz-adv-x="1028" d="M131 -4v1460h889v-45h-840v-563h338v-53h-338v-799h-49z" />
<glyph unicode="G" horiz-adv-x="1538" d="M114 808q15 134 77.5 258t170.5 222q106 94 242 132q92 26 186 26q43 0 86 -6q138 -17 261 -86.5t202 -186.5q10 -12 25.5 -38.5t19.5 -30.5q10 -18 25.5 -50t22.5 -57v-4q-6 -6 -20.5 -13t-25.5 -3q-31 82 -80 151.5t-113.5 123.5t-141 91t-162.5 54q-4 0 -15.5 2 t-15.5 2q-21 1 -42 1q-84 0 -152 -14q-86 -16 -179 -69q-84 -45 -142 -115t-105 -149q-35 -59 -54.5 -133t-23.5 -142q-1 -23 -1 -46q0 -57 7 -110q10 -75 39 -153q29 -80 78 -147.5t108 -120.5q100 -92 226 -127q86 -24 171 -24l81 6q126 16 240 80.5t189 172.5 q6 10 23.5 37t21.5 33q10 16 22.5 41.5t18.5 48.5v8h-389v45h445q1 -11 1 -21q0 -33 -13 -66q-19 -44 -42 -81q-49 -88 -120.5 -158.5t-158.5 -118.5t-185 -69q-61 -12 -124 -12q-37 0 -75 4q-145 16 -269 91t-208 194q-84 123 -116 258q-22 91 -22 181q0 44 6 88z" />
<glyph unicode="H" horiz-adv-x="1159" d="M131 -4v1460h49v-1460h-49zM250 440v45h663v-45h-663zM975 -4v1460h49v-1460h-49z" />
<glyph unicode="I" horiz-adv-x="313" d="M131 0v1460h49v-1460h-49z" />
<glyph unicode="J" horiz-adv-x="616" d="M33 -4v49q158 4 250 97.5t133 236.5q12 43 22.5 90t10.5 94v848h-388v45h441v-864q0 -84 -20.5 -175t-62.5 -173t-106.5 -143.5t-152.5 -88.5q-31 -10 -64 -15q-18 -3 -36 -3q-14 0 -27 2z" />
<glyph unicode="K" horiz-adv-x="1110" d="M131 0v1456h45v-1456h-45zM332 766q2 4 8 8l594 682h70l-592 -686q-2 -2 -4 -3t-5 -5l-3 -6q0 -2 1 -4q2 -2 3.5 -4.5t3.5 -4.5l559 -743h-66l-565 756q-4 4 -4 8v2z" />
<glyph unicode="L" horiz-adv-x="806" d="M131 0v1456h53v-1407h617v-49h-670z" />
<glyph unicode="M" horiz-adv-x="1382" d="M131 -4v1460h49l506 -407q4 -4 8 -7q10 -4 13 -2l493 416h49v-1460h-49v1382l-502 -411l-514 411h-4v-1382h-49z" />
<glyph unicode="N" horiz-adv-x="1249" d="M131 0v1460h49l877 -403h12v403h45v-1460h-45v995l-868 396q-4 0 -8.5 2t-8.5 2v-1395h-53z" />
<glyph unicode="O" horiz-adv-x="1693" d="M105 693q-1 15 -1 30q0 121 37 229q41 121 120 220.5t183.5 168t227.5 100.5q90 24 183 23q33 0 66 -2q126 -12 249.5 -73.5t232.5 -180.5q72 -78 112.5 -172t59.5 -196q12 -67 12 -131q0 -61 -11 -119q-22 -119 -78 -220.5t-142 -181t-191.5 -129t-226.5 -67.5 q-50 -7 -101 -7q-73 0 -147 15q-82 14 -159.5 52t-145.5 91.5t-122 121t-87 143.5q-66 147 -71 285zM160 786q-1 -22 -2 -45q0 -101 24 -197q28 -118 105 -222q78 -111 191.5 -181.5t248.5 -95.5q57 -9 114 -10q39 0 79 5q98 11 187 47t165 95.5t131 139.5q75 106 105 225 q23 91 23 180q0 27 -2 55q-9 116 -57.5 222t-127 191t-187 141.5t-239.5 70.5q-38 4 -76 4q-68 1 -137 -13q-107 -22 -199 -77q-68 -39 -129.5 -97.5t-108.5 -128t-76.5 -148.5t-31.5 -161z" />
<glyph unicode="P" horiz-adv-x="1183" d="M131 0v1448h465q78 0 151.5 -27.5t135.5 -70.5q88 -59 141 -140q52 -82 74 -172q15 -63 16 -128q0 -27 -3 -55q-9 -93 -48 -178t-105.5 -155.5t-160.5 -113.5q-49 -24 -109 -40q-44 -11 -85 -12q-16 0 -32 2v50q154 10 269.5 85.5t183.5 217.5q29 57 35 119q4 38 4 76 q0 26 -2 52q-4 76 -44 154t-102.5 141.5t-140.5 102.5t-153 39h-437v-1395h-53z" />
<glyph unicode="Q" horiz-adv-x="1751" d="M106 680q-1 22 -1 44q0 143 55 276q65 155 188 266q139 125 297 168q100 27 197 27q57 0 112 -9q152 -25 284 -108.5t219 -210.5t117 -289q11 -58 11 -118q0 -109 -35 -226q-31 -104 -94 -198.5t-149 -160.5v-4l321 -123q18 -7 18 -13q0 -5 -6 -15l-12 -25h-4l-375 139 q-98 -68 -213 -96q-93 -23 -188 -23q-24 0 -47 1q-164 10 -306.5 86.5t-240.5 205.5q-68 86 -104.5 191.5t-43.5 214.5zM160 784q-1 -22 -1 -44q0 -102 23 -196q27 -116 101 -220q0 -4 4 -8.5t8 -4.5q46 2 92 2q260 0 518 -63q18 -4 64.5 -16.5t97.5 -26.5t97 -26.5 t65 -18.5q14 -6 28 8q6 6 21.5 17.5t19.5 15.5q78 72 131.5 161t80.5 188q23 86 23 176q0 14 -1 28q-4 104 -43 205q-47 121 -126 211t-178.5 146t-212.5 76q-63 12 -126 12q-50 0 -100 -8q-113 -16 -219.5 -70t-194.5 -150q-72 -78 -120 -183.5t-52 -210.5zM336 258 q76 -86 174 -139t209 -76q10 -4 30.5 -6t26.5 -2q22 -1 44 -1q86 0 162 13q95 16 194 70l4 4l-4 4q-2 2 -32 10t-70 19.5t-81 22.5t-67 18q-16 4 -59.5 12t-91.5 16t-91 15.5t-59 11.5q-74 10 -131 13q-25 1 -53 1q-37 0 -79 -2q-2 0 -12 -2t-14 -2z" />
<glyph unicode="R" horiz-adv-x="1224" d="M131 0v1448h465q80 0 159 -29.5t140 -77.5q92 -68 147 -165q54 -96 67 -204q4 -34 4 -68q1 -74 -19 -148q-28 -108 -103 -197q-43 -53 -96 -91t-115 -69v-4l297 -395h-61l-289 379h-4q-37 -6 -75 -13.5t-77 -7.5v50q129 8 234.5 65t170.5 149q66 92 84 210q5 33 4 67 q0 87 -32 178q-41 109 -128 190t-197 111q-6 0 -27 6.5t-27 6.5q-4 0 -14 2t-14 2h-441v-1395h-53z" />
<glyph unicode="S" horiz-adv-x="1150" d="M106 379q12 4 22.5 4h23.5q10 -86 54 -157.5t122 -114.5q74 -41 154 -57q45 -9 91 -8q35 0 70 5q80 12 153.5 50t129.5 104q43 47 54 107q8 44 8 88q0 16 -1 32q0 35 -19.5 69t-37.5 62q-53 74 -141.5 116t-180.5 48q-74 6 -138 14.5t-130 36.5q-80 35 -140.5 102.5 t-84.5 151.5q-12 46 -12 89q0 23 4 47q10 64 45 124q25 47 64.5 85t86.5 63q80 44 174 60q53 9 106 9q41 1 81 -5q92 -12 174 -57.5t137 -125.5q31 -41 50 -93q16 -43 16 -87q0 -9 -1 -19h-49q-2 94 -50 164t-122 111t-165 55q-44 7 -87 7q-46 0 -91 -8q-87 -15 -161.5 -60 t-117.5 -121q-41 -73 -42 -144q0 -6 1 -12q4 -76 40.5 -139.5t101 -110.5t142.5 -69q47 -12 93.5 -14.5t95.5 -6.5q86 -6 165.5 -42t139 -95t88.5 -139q19 -53 19 -111q0 -30 -5 -61q-16 -90 -71.5 -158t-134 -111t-168.5 -58q-44 -7 -86 -7q-45 0 -87 8q-68 12 -138 43 t-125.5 79t-89.5 112q-30 58 -30 128v17z" />
<glyph unicode="T" horiz-adv-x="921" d="M49 1407v49h823v-49h-391v-1407h-49v1407h-383z" />
<glyph unicode="U" horiz-adv-x="1370" d="M123 477v967h49v-938q0 -68 24.5 -139.5t65.5 -126.5q53 -74 124 -123q72 -49 150 -74q75 -24 155 -24h6q83 1 161 28t146.5 80t117.5 133q39 66 58 131q4 16 12 47t8 35v971h49v-946q0 -41 -10 -82t-22 -78q-35 -98 -100.5 -173t-150.5 -123q-86 -48 -184 -66 q-51 -9 -103 -9q-47 0 -95 8q-78 12 -148.5 48t-129 88.5t-100.5 119t-63 140.5q-2 2 -4 12t-4 22.5t-4 23.5t-4 15q0 6 -2 17.5t-2 15.5z" />
<glyph unicode="V" horiz-adv-x="1208" d="M78 1460h53l477 -1382l465 1382h53l-489 -1460h-57z" />
<glyph unicode="W" horiz-adv-x="1759" d="M98 1460h54l407 -1411l338 436l348 -432l359 1407h53l-367 -1460h-69l-324 403l-313 -403h-62z" />
<glyph unicode="X" horiz-adv-x="1224" d="M106 0l474 748q4 8 0 16l-428 696h57l407 -653l9 8l407 645h62l-437 -690q-6 -8 -8 -12t4 -15l457 -743h-57l-437 707l-448 -707h-62z" />
<glyph unicode="Y" horiz-adv-x="1085" d="M74 1460h53l412 -872l4 4l415 868h54v-4q0 -4 -4 -10t-4 -10l-437 -914v-522h-53v518l-12 21z" />
<glyph unicode="Z" horiz-adv-x="999" d="M61 0v57l783 1334q0 4 6 11t2 13h-791v45h885l-799 -1386q0 -4 -6 -10.5t-2 -10.5h758v-53h-836z" />
<glyph unicode="`" horiz-adv-x="1705" d="M494 1464v49l602 -127v-49z" />
<glyph unicode="a" horiz-adv-x="1366" d="M106 660q20 110 80 204t149 158.5t205 90.5q55 12 113 12q65 0 135 -15q145 -33 240.5 -120t169.5 -210v330h47v-1110h-47v319q-96 -176 -250 -269q-122 -73 -275 -73q-41 0 -85 5q-111 14 -214.5 73.5t-166.5 151.5q-77 111 -99 227q-12 61 -11 121q-1 53 9 105z M152 622q-8 -39 -7 -80q0 -63 19 -128q43 -145 152.5 -245.5t256.5 -129.5q48 -9 99 -9q26 0 52 2q79 7 144 40q98 47 167 118.5t106 157.5t42 178q1 14 1 28q0 76 -24 152q-28 88 -89 166t-156 134q-75 43 -163 58q-43 7 -85 7q-45 0 -89 -8q-111 -23 -207.5 -84 t-149.5 -160q-49 -95 -69 -197z" />
<glyph unicode="b" horiz-adv-x="1310" d="M117 0v1710h57v-905q39 66 87 124t114 101q89 55 199 81q59 14 115 14q50 0 99 -11q137 -27 236.5 -101.5t157.5 -176.5t74 -218q5 -40 6 -78q0 -76 -20 -150q-30 -112 -107.5 -207t-204.5 -154q-74 -35 -159 -48q-41 -6 -81 -6q-43 0 -84 7q-150 25 -254 105.5 t-178 209.5v-297h-57zM167 568v-9q1 -59 13 -117q14 -62 41 -120t66 -101q63 -72 136 -115.5t169 -66.5q4 0 16.5 -2t16.5 -2h131q66 2 131 30.5t121.5 74.5t100.5 104.5t65 117.5q10 33 21 68t11 70q1 15 1 29q0 141 -55 249q-60 118 -157.5 190t-218.5 94q-48 9 -95 8 q-71 0 -141 -20q-116 -32 -211.5 -122t-142.5 -242q-18 -54 -19 -118z" />
<glyph unicode="c" horiz-adv-x="1249" d="M102 476q-7 48 -7 94q-1 72 15 140q26 114 95 211t180 160q106 61 227 67q14 1 28 0q106 0 202 -37q108 -42 194 -127t125 -204l-6 -4q-4 0 -16.5 -5t-20.5 -9h-4q-29 63 -72 121.5t-97 104.5t-119.5 75t-139.5 33q-15 1 -30 1q-116 0 -200 -42q-96 -47 -188 -144 q-47 -49 -72.5 -116.5t-39.5 -130.5q-10 -49 -10 -96q0 -16 1 -34q5 -64 23 -131q39 -133 129 -223q91 -90 205 -125q68 -21 139 -21q49 0 99 10q124 24 231 116q49 47 80.5 99t60.5 112l4 6l43 -15q1 -1 1 -3q0 -4 -3 -13q-4 -14 -10 -29.5t-12.5 -29t-8.5 -15.5 q-47 -80 -111.5 -141t-142.5 -99t-166 -49q-31 -4 -63 -4q-58 0 -119 13q-106 20 -200.5 91t-147.5 167q-58 106 -76 226z" />
<glyph unicode="d" horiz-adv-x="1310" d="M50 603q11 102 56.5 193t118 163.5t164.5 115.5q69 33 141 42q50 6 101 7q23 0 45 -2q113 -4 212 -63.5t173 -136.5q4 -4 9 -12.5t9 -12.5q2 -2 9.5 -12.5t15.5 -22.5t14 -22.5t8 -12.5t4 -2q2 -2 7 -2v891h51q3 -427 3 -855.5t-3 -858.5h-51v283q-2 0 -7 -4q-2 -2 -4 -3 q-2 -2 -8 -12t-14 -22.5t-15.5 -22.5t-9.5 -12q-43 -63 -106.5 -110.5t-136 -76t-151.5 -37.5q-34 -4 -67 -4q-44 0 -88 7q-104 18 -188 68t-154 124q-43 47 -71.5 104.5t-46.5 116.5q-23 75 -23 151q0 26 3 53zM109 479q6 -59 29.5 -117.5t58.5 -107.5q63 -88 152.5 -143.5 t195.5 -71.5q41 -7 81 -7q43 0 86 8q83 15 156.5 55t132 101.5t93.5 137.5q10 25 24.5 54.5t14.5 57.5v211q0 29 -14.5 58.5t-24.5 54.5q-31 63 -77 117.5t-103.5 94.5t-124 62.5t-136.5 26.5q-14 1 -28 1q-107 0 -203 -41q-108 -46 -182 -127q-74 -82 -111 -192 q-25 -76 -25 -157q0 -37 5 -76z" />
<glyph unicode="e" horiz-adv-x="1296" d="M98 621q4 74 33 147.5t70 132.5q84 115 194.5 172t228.5 65q21 2 41 2q96 0 189 -32q113 -39 201 -117q88 -77 139 -191q46 -102 46 -226q0 -15 -1 -29h-539v57h488v8q-35 276 -273 418q-73 44 -155 56q-44 7 -87 6q-38 0 -77 -5q-92 -10 -174 -56t-141 -114 q-86 -95 -115 -211q-17 -66 -16 -132q0 -48 8 -96q22 -112 93 -209t181 -158q53 -29 114.5 -41.5t121.5 -20.5v-47h-46t-44 4q-104 18 -188.5 68.5t-153.5 124.5q-78 91 -110 199q-28 96 -28 199v26z" />
<glyph unicode="f" horiz-adv-x="686" d="M57 1067v51h179v258q0 4 5 35t9 45q18 68 57 120t93.5 89t117.5 55q52 14 106 14q13 0 25 -1v-52q-113 -4 -206 -51t-132 -160q-10 -25 -17 -54.5t-7 -57.5v-240h340v-51h-334l-6 -10v-1057h-51v1067h-179z" />
<glyph unicode="g" horiz-adv-x="1353" d="M98 479v142q0 31 11.5 64.5t21.5 66.5q27 74 73 137t107.5 110.5t134 78t150.5 40.5h141q35 0 74 -11t72 -28q104 -41 175.5 -112.5t129.5 -163.5v297h51v-1020q0 -53 -12.5 -107.5t-28.5 -103.5q-35 -106 -107.5 -182t-167 -121t-199.5 -56q-36 -4 -70 -4q-70 0 -138 15 q-80 18 -149.5 64t-119.5 110.5t-77 142.5q-21 62 -21 128q0 17 1 34h47q0 -4 2 -8q0 -4 1 -8t1 -9q8 -55 20 -106t41 -105q33 -59 90.5 -105t120.5 -69q89 -30 182 -30h19q104 4 196.5 41t165 107.5t109.5 172.5q16 41 27.5 81t11.5 79v254q-55 -104 -140.5 -177 t-186.5 -109q-90 -32 -187 -32q-12 0 -24 1q-111 4 -218 51q-68 31 -124 78t-99 105t-71 127t-36 140zM150 482q10 -76 43 -144q53 -113 152 -195.5t228 -105.5q42 -7 84 -7q48 0 95 9q90 16 167.5 58t138 107.5t93.5 151.5q10 29 21.5 64t11.5 63v131q-2 6 -2 13q-2 4 -2 9 v7q-16 68 -44 131.5t-75 112.5q-76 84 -167 127t-184 51q-23 2 -45 2q-71 0 -140 -19q-91 -26 -165.5 -82.5t-129 -140.5t-74.5 -192q-10 -46 -10 -92q0 -29 4 -59z" />
<glyph unicode="h" d="M117 0v1700h51v-905l6 4q31 47 59.5 88t71.5 80q105 95 231 127q76 20 150 19q48 -1 98 -9q122 -22 231 -96t177 -195q25 -47 45 -105.5t20 -111.5v-596h-47v573q0 57 -22.5 119t-50.5 111q-49 84 -121 141t-155 86t-173 29t-173 -27.5t-155.5 -85t-119.5 -143.5 q-29 -49 -50.5 -110.5t-21.5 -119.5v-573h-51z" />
<glyph unicode="i" horiz-adv-x="249" d="M98 0v1085h47v-1085h-47zM98 1550v150h47v-150h-47z" />
<glyph unicode="j" horiz-adv-x="268" d="M18 -526q20 16 35 40.5t23 53.5t13 58.5t9 54.5q2 16 5 44.5t6.5 57.5t5.5 52.5t2 29.5l10 1220h47v-1155q0 -6 -2 -35.5t-5 -66.5t-6 -73t-5 -56q0 -4 -2 -17.5t-5.5 -31t-7.5 -33.5t-6 -25q-6 -23 -14 -51t-21.5 -53t-33 -43t-48.5 -23v52zM127 1550v156h47v-156h-47z " />
<glyph unicode="k" horiz-adv-x="874" d="M117 0v1706h47v-1706h-47zM328 578l438 507h70l-443 -516l428 -569h-65l-418 555q-4 4 -6 10q-5 5 -5 9q0 2 1 4z" />
<glyph unicode="l" horiz-adv-x="460" d="M113 221v1465h51v-1450q0 -14 8 -36t16 -36q18 -33 48 -54.5t65 -34t71 -17.5t70 -7v-51h-14q-8 0 -30.5 2t-26.5 2q-78 8 -144.5 49t-99.5 117q-4 6 -9 24.5t-5 26.5z" />
<glyph unicode="m" horiz-adv-x="2015" d="M117 4v1081h51v-292q23 41 45.5 74.5t52.5 66.5q118 128 274 162q72 16 146 15q85 0 172 -21q41 -10 74 -30t67 -36q2 0 7 -4q2 -2 4 -2l2 2q4 4 6 4q43 25 85 42t89 32q72 20 143 20q33 0 65 -4q102 -14 191.5 -60t159.5 -123t113 -175q14 -33 26.5 -74t12.5 -76v-602 h-48v582q0 2 -3 14t-7 28.5t-8 32t-6 25.5q-29 115 -105.5 198t-178 128t-215.5 47h-10q-109 0 -210 -45q-4 0 -14.5 -7.5t-14.5 -7.5q-4 -4 -12 -8q-6 -4 -10 -6v-8q43 -41 81 -90t64 -105q28 -56 42 -116q11 -45 10 -90q0 -16 -1 -31h-51q-6 137 -67.5 247.5t-158.5 179 t-222 86.5q-34 5 -68 4q-92 0 -188 -34q-55 -18 -105.5 -53t-92.5 -79t-72.5 -97.5t-45.5 -108.5q-2 -10 -5 -24.5t-6 -29.5t-5 -26.5t-2 -13.5v-592h-51z" />
<glyph unicode="n" horiz-adv-x="1366" d="M117 0v1085h51v-290l6 4q39 57 73 106t91 90q98 77 219 103q67 15 132 14q53 0 105 -10q116 -22 219 -89t165 -177q33 -55 56 -120t23 -128v-588h-47v563q0 57 -20.5 119.5t-48.5 112.5q-49 86 -119 144t-153 89t-171 33h-12q-81 -1 -159 -25q-83 -26 -156.5 -81.5 t-126.5 -141.5q-29 -49 -52.5 -111.5t-23.5 -119.5v-582h-51z" />
<glyph unicode="o" horiz-adv-x="1339" d="M97 538v6q0 96 29 181q30 88 86 163t134 127q78 51 172 79q77 23 163 23q19 0 38 -1q78 -4 147.5 -32.5t132.5 -69.5q68 -47 116 -108.5t83 -135.5q31 -68 38 -140q4 -46 5 -93q0 -27 -2 -54q0 -41 -11 -78.5t-26 -72.5q-37 -98 -105.5 -172t-156.5 -119t-190 -60 q-44 -6 -86 -6q-58 0 -115 11q-68 12 -132.5 43.5t-118.5 79t-96 105.5t-67 124q-37 100 -38 200zM152 501q8 -134 92 -253q59 -88 149.5 -143.5t194.5 -71.5q42 -8 84 -7q45 0 91 8q89 17 163 58q96 53 156 132t86 169q20 71 21 144q0 21 -2 41q-7 94 -46 180t-108.5 156.5 t-168.5 113.5q-60 25 -130 34q-33 4 -66 4q-36 0 -72 -5q-141 -23 -244.5 -108t-155.5 -201q-45 -100 -46 -214q1 -18 2 -37z" />
<glyph unicode="p" d="M117 -549v1630h51v-282l6 6q35 53 64.5 94t74.5 84q51 45 116 76t135 46q65 14 131 14h9q70 -1 136 -19q125 -39 212 -108.5t137 -158t65 -187.5q6 -45 6 -89q0 -54 -10 -107q-17 -98 -67 -187t-129 -154.5t-186 -101.5q-91 -31 -202 -31q-18 0 -37 1q-113 6 -210 63.5 t-171 139.5q-6 6 -19.5 25.5t-26 40t-22.5 36t-12 15.5v-846h-51zM168 516q4 -57 18.5 -111.5t41 -103.5t63.5 -88q59 -66 131 -113t160 -61q56 -11 108 -11q70 0 134 20q112 34 195 103.5t132 168t56 206.5q1 15 1 30q0 92 -36 184q-42 108 -140 196q-55 49 -126.5 83 t-145.5 44q-32 3 -64 3q-65 0 -130 -14q-95 -20 -177 -79q-88 -63 -143.5 -152.5t-71.5 -195.5q-7 -38 -7 -77q0 -16 1 -32z" />
<glyph unicode="q" d="M56 622q18 140 98 257q92 131 231 189q122 51 257 51q19 0 38 -1q117 -8 212 -66.5t173 -140.5q6 -6 17.5 -22.5t23.5 -33.5t21.5 -31.5t13.5 -14.5v281h51v-1635h-51v836q-47 -74 -101.5 -135.5t-128.5 -104.5q-78 -47 -161 -63q-67 -12 -139 -12q-19 0 -38 1 q-72 4 -140 29t-128 64q-78 51 -133 123.5t-88 158.5q-34 94 -34 192q0 39 6 78zM109 479q6 -63 29.5 -124.5t62.5 -110.5q66 -86 154 -141.5t194 -69.5q38 -5 75 -5q49 0 96 9q83 16 154.5 57t129 102.5t94.5 141.5q16 29 27.5 61.5t11.5 65.5v164q0 51 -28 110.5 t-56 102.5q-78 113 -182.5 167t-214.5 59q-11 1 -23 1q-97 0 -191 -37q-106 -41 -185 -118.5t-122 -188.5q-31 -80 -31 -171q0 -37 5 -75z" />
<glyph unicode="r" horiz-adv-x="708" d="M117 0v1075h51v-313h6q37 68 91 127t121 104q66 45 142 69q65 20 134 20q12 0 24 -1v-53q-90 -2 -172 -31.5t-148.5 -82t-114.5 -125t-69 -160.5q0 -4 -4 -23.5t-4 -27.5q0 -10 -3 -31t-3 -25v-522h-51z" />
<glyph unicode="s" horiz-adv-x="1005" d="M94 279q8 0 24.5 1t26.5 -8q6 -78 56.5 -129t121 -78.5t149.5 -32.5q19 -1 36 -2q57 0 102 13q72 18 139.5 61t92.5 117q8 28 8 55q0 38 -16 74q-28 62 -86 103q-37 27 -76 41t-79 21t-83 10t-86 7q-57 4 -111.5 28t-101.5 56q-41 33 -75 79t-38 100q-1 14 -1 27 q-1 45 15 85q20 51 57.5 91t87.5 68t105 44q57 14 132 15h8q71 0 140 -17q73 -18 134.5 -56t91.5 -98q16 -26 30 -58q10 -25 10 -50q0 -8 -1 -15h-51q-8 59 -41 107.5t-86 77.5q-41 23 -87 39t-93 16q-14 1 -28 1q-85 0 -165 -22q-92 -24 -163 -106q-25 -28 -35 -64 q-7 -24 -7 -48q0 -11 1 -23q6 -53 39.5 -99t80.5 -71q33 -16 68 -29.5t70 -21.5q4 0 13 -2t13 -2q68 -8 131.5 -13.5t128.5 -29.5q80 -33 132 -89q53 -56 68 -120q6 -25 6 -50q0 -40 -14 -82q-24 -68 -93 -128q-71 -64 -173 -84q-60 -12 -118 -12q-39 0 -76 6 q-53 6 -113.5 29.5t-111.5 61.5t-83 90q-27 44 -27 96q0 10 1 20z" />
<glyph unicode="t" horiz-adv-x="483" d="M43 1061v53h174v586h55v-586h170v-53h-170v-1061h-55v1061h-174z" />
<glyph unicode="u" horiz-adv-x="1366" d="M109 479v602h51v-581q0 -35 14 -80t29 -80q47 -102 132 -175t187 -107q81 -26 167 -26q23 0 47 2q110 9 208 70q45 29 89 71t80 93t58.5 106.5t22.5 110.5l8 607h47v-1092h-51v297q-49 -82 -112.5 -146.5t-138.5 -106.5t-162 -59q-48 -9 -98 -9q-42 0 -85 6 q-84 12 -159.5 46.5t-138 87t-108.5 122t-69 153.5q0 4 -5 27.5t-9 34.5q0 2 -1 6t-1 8q-2 6 -2 12z" />
<glyph unicode="v" d="M66 1090h61l549 -1029l508 1029h55v-5q0 -4 -4 -12t-4 -12l-522 -1061h-58z" />
<glyph unicode="w" horiz-adv-x="1492" d="M84 1090h57l375 -1014h4l6 4l211 375l215 -385h6l394 1020h51l-408 -1090h-65l-185 330q0 4 -4 9t-8 9l-6 -6q0 -4 -4 -8l-4 -4l-174 -330h-62z" />
<glyph unicode="x" horiz-adv-x="1034" d="M98 1090h66l348 -494l334 494h65l-358 -531q0 -4 -4 -9t0 -9l377 -541h-62l-352 498l-334 -498h-61l352 530q6 14 0 29z" />
<glyph unicode="y" horiz-adv-x="1150" d="M80 1085h57l473 -1024h4l2 2q4 4 5 9l413 999q0 2 2 6q4 8 6 8h52l-676 -1648h-56l216 530q0 4 4 12.5t0 12.5z" />
<glyph unicode="z" horiz-adv-x="966" d="M61 0v51l752 963q4 6 4 20h-756v47h842v-53l-766 -977h766v-51h-842z" />
<glyph unicode="|" horiz-adv-x="1705" d="M829 -299v2064h33v-2064h-33z" />
<glyph unicode="&#xad;" horiz-adv-x="931" d="M141 451v61h641v-61h-641z" />
<glyph unicode="&#xc4;" horiz-adv-x="1558" d="M37 0l1337 1456h49v-1460h-45v1378l-1276 -1374h-65zM1196 1468v68h68v-68h-68zM1464 1470v68h68v-68h-68z" />
<glyph unicode="&#xd6;" horiz-adv-x="1693" d="M105 721.5q-5 138.5 36 259.5t120 220t183.5 168t227.5 100.5t249 20.5t249.5 -72.5t232.5 -180.5q72 -78 112.5 -172t59.5 -197q23 -131 1 -249.5t-78 -220t-142 -181.5t-191.5 -129t-226.5 -66.5t-248 7.5q-82 14 -159.5 52t-145.5 91t-122 120.5t-87 143.5 q-66 147 -71 285.5zM160 815q-6 -125 21.5 -242.5t105.5 -222.5q78 -111 191.5 -181t248.5 -95q96 -16 193.5 -5t186.5 47t165 95t131 139q76 106 105.5 225t20.5 235t-57.5 222.5t-127 191.5t-187 141t-239.5 71q-106 12 -213 -9.5t-199 -76.5q-68 -39 -129.5 -97.5 t-108.5 -128t-76.5 -148.5t-31.5 -161zM694 1561v77h78v-77h-78zM932 1561v77h78v-77h-78z" />
<glyph unicode="&#xdc;" horiz-adv-x="1370" d="M123 477v967h49v-938q0 -68 24.5 -139.5t65.5 -126.5q53 -74 124 -123t149.5 -74t161.5 -24t161 28t146.5 80t117.5 133q39 66 58 131q4 16 12 47t8 35v971h49v-946q0 -41 -10 -82t-22 -78q-35 -98 -100.5 -173t-150.5 -123t-183.5 -65.5t-198.5 -1.5q-78 12 -148.5 48 t-129 88.5t-100.5 119t-63 140.5q-2 2 -4 12t-4 22.5t-4 23.5t-4 15q0 6 -2 17.5t-2 15.5zM502 1538v72h71v-72h-71zM782 1536v74h74v-74h-74z" />
<glyph unicode="&#xe4;" horiz-adv-x="1366" d="M106.5 664.5q20.5 109.5 80 204t148.5 159t204.5 90t248.5 -3.5q145 -33 240.5 -120t169.5 -210v330h47v-1081h-47v291q-96 -176 -250.5 -269.5t-359.5 -68.5q-111 14 -214.5 73.5t-166.5 151.5q-76 111 -98.5 227.5t-2 226zM152.5 625.5q-19.5 -101.5 11.5 -207.5 q43 -145 152.5 -245.5t256.5 -129.5q72 -14 151 -7t144 40q98 47 167 118.5t106 157.5t42 178.5t-22.5 180.5t-89 165.5t-156.5 133.5q-74 43 -162.5 58t-174.5 -1q-111 -23 -207.5 -84t-149.5 -160q-49 -96 -68.5 -197.5zM475 1362v74h74v-74h-74zM764 1362v74h74v-74h-74z " />
<glyph unicode="&#xf6;" horiz-adv-x="1339" d="M97 533.5q-1 99.5 29 187.5t86 162.5t134 127t172 80t201 21.5q78 -4 147.5 -32.5t132.5 -69.5q68 -47 116 -108.5t83 -135.5q31 -68 38 -140.5t3 -146.5q0 -41 -11 -79t-26 -72q-37 -98 -105.5 -172t-156.5 -119t-189.5 -60t-201.5 5q-68 12 -132.5 43.5t-118.5 79 t-96 105.5t-67 124q-37 100 -38 199.5zM151.5 496.5q8.5 -134.5 92.5 -252.5q59 -88 149.5 -143.5t194.5 -71.5q86 -16 175 1t163 58q96 53 156.5 132t86 169t18.5 184.5t-46 180.5t-108.5 156.5t-168.5 113.5q-59 25 -129.5 34t-138.5 -1q-141 -23 -244.5 -108t-156 -201.5 t-44 -251zM489 1372v64h64v-64h-64zM776 1368v68h68v-68h-68z" />
<glyph unicode="&#xfc;" horiz-adv-x="1366" d="M109 479v602h51v-581q0 -35 14 -80t29 -80q47 -102 132 -175t187.5 -106.5t213 -24.5t208.5 70q45 29 89 71t80 93t58.5 106.5t22.5 110.5l8 607h47v-1086h-51v291q-49 -82 -112.5 -146.5t-138.5 -106.5t-162 -59t-183 -3q-84 12 -159.5 46.5t-138 87t-108.5 122 t-69 153.5q0 4 -5 27.5t-9 34.5q0 2 -1 6t-1 8q-2 6 -2 12zM487 1364v72h72v-72h-72zM766 1364v72h72v-72h-72z" />
<glyph unicode="&#x2000;" horiz-adv-x="1045" />
<glyph unicode="&#x2001;" horiz-adv-x="2091" />
<glyph unicode="&#x2002;" horiz-adv-x="1045" />
<glyph unicode="&#x2003;" horiz-adv-x="2091" />
<glyph unicode="&#x2004;" horiz-adv-x="697" />
<glyph unicode="&#x2005;" horiz-adv-x="522" />
<glyph unicode="&#x2006;" horiz-adv-x="348" />
<glyph unicode="&#x2007;" horiz-adv-x="348" />
<glyph unicode="&#x2008;" horiz-adv-x="261" />
<glyph unicode="&#x2009;" horiz-adv-x="418" />
<glyph unicode="&#x200a;" horiz-adv-x="116" />
<glyph unicode="&#x2010;" horiz-adv-x="931" d="M141 451v61h641v-61h-641z" />
<glyph unicode="&#x2011;" horiz-adv-x="931" d="M141 451v61h641v-61h-641z" />
<glyph unicode="&#x2012;" horiz-adv-x="931" d="M141 451v61h641v-61h-641z" />
<glyph unicode="&#x2013;" d="M141 451v61h1024v-61h-1024z" />
<glyph unicode="&#x2014;" horiz-adv-x="2338" d="M141 451v61h2048v-61h-2048z" />
<glyph unicode="&#x202f;" horiz-adv-x="418" />
<glyph unicode="&#x205f;" horiz-adv-x="522" />
<glyph unicode="&#x20ac;" horiz-adv-x="2115" d="M98 678v63h197l6 7v18q0 2 -1 11t-2 19.5t-2 19.5t-1 11v160q0 2 1 11.5t2 19.5t2 19.5t1 11.5v12h-203v67h215q33 113 85.5 216.5t125 189.5t164.5 152.5t207 109.5q162 59 337 45t329 -90q139 -70 243.5 -183.5t169.5 -252.5q0 -4 7.5 -21.5t11.5 -21.5q4 -10 7 -15.5 t-7 -11.5q-4 -4 -24.5 -11t-24.5 -7q-33 76 -73 144.5t-95 133.5q-131 150 -298 217.5t-338 57t-332 -95.5t-278 -240q-51 -66 -92 -152t-55 -164h1417v-67h-1429l-4 -12q-2 -4 -2 -10.5v-8.5q-10 -51 -11.5 -96t4.5 -100q0 -10 2 -23.5t4.5 -27t4.5 -23.5t2 -12l6 -7h1423 v-63h-1411v-19q0 -2 4 -13t9.5 -25.5t10.5 -30t7 -23.5q51 -127 133 -226t184.5 -169t220 -105.5t239.5 -32.5t243 45t231 130q66 57 120 121.5t95 138.5q6 10 20.5 36.5t18.5 37.5q0 4 9.5 21.5t9.5 21.5q4 12 14 12t20.5 -5t18.5 -11.5t8 -8.5q-59 -158 -155.5 -277.5 t-222.5 -196t-276.5 -107t-314.5 -10.5q-135 16 -249.5 78.5t-207 155.5t-159 209t-101.5 241l-6 12h-215z" />
<glyph unicode="&#xe000;" horiz-adv-x="1085" d="M0 0v1085h1085v-1085h-1085z" />
</font>
</defs>
</svg>
