<svg xmlns="http://www.w3.org/2000/svg" xmlns:xlink="http://www.w3.org/1999/xlink" version="1.1" id="Layer_1" width="100px" height="100px" viewBox="0 0 100 100" style="enable-background:new 0 0 100 100;" xml:space="preserve">
	<g transform="scale(4)">
		<path style="fill:#333333;" d="M32.001,19.46    c-6.907,0-12.54,5.635-12.54,12.54s5.633,12.54,12.54,12.54c6.906,0,12.539-5.635,12.539-12.54S38.907,19.46,32.001,19.46"/>
		<path style="fill:#333333;" d="M52.595,27.832l6.406-4.175    l-7.764,0.204c-4.264,0.11-6.582-2.925-5.15-6.75l2.602-6.954l-6.156,4.507c-3.381,2.47-7.131,1.309-8.338-2.581L32.001,5    l-2.193,7.082c-1.208,3.89-4.958,5.051-8.339,2.581l-6.156-4.507l2.601,6.954c1.432,3.825-0.887,6.86-5.15,6.75L5,23.657    l6.406,4.175c3.518,2.293,3.518,6.045,0,8.339L5,40.345l7.764-0.204c4.263-0.11,6.582,2.925,5.15,6.75l-2.601,6.954l6.156-4.506    c3.381-2.472,7.131-1.311,8.339,2.58l2.193,7.082l2.193-7.082c1.207-3.891,4.957-5.052,8.338-2.58l6.156,4.506l-2.602-6.954    c-1.432-3.825,0.887-6.86,5.15-6.75l7.764,0.204l-6.406-4.174C49.077,33.877,49.077,30.125,52.595,27.832 M32.001,46.541    c-8.019,0-14.54-6.523-14.54-14.541s6.521-14.54,14.54-14.54c8.018,0,14.539,6.523,14.539,14.54S40.019,46.541,32.001,46.541"/>
	</g>
</svg>