<svg xmlns="http://www.w3.org/2000/svg" version="1.1" width="100" height="100" viewBox="0 0 32 32">
<path id="clear-day" d="M28.102,15.187l-1.101-0.217c-2.269-0.447-2.698-2.057-0.959-3.577  l0.845-0.738c1.739-1.521,1.375-2.154-0.812-1.408L25.01,9.608c-2.186,0.745-3.363-0.434-2.617-2.619l0.363-1.062  c0.745-2.187,0.111-2.553-1.408-0.812l-0.74,0.847c-1.521,1.738-3.131,1.307-3.573-0.959L16.812,3.9  c-0.445-2.267-1.181-2.267-1.625,0L14.97,5.001c-0.446,2.266-2.057,2.697-3.577,0.959l-0.738-0.846  C9.134,3.376,8.5,3.74,9.246,5.927l0.362,1.062c0.745,2.186-0.434,3.364-2.619,2.619L5.927,9.246C3.74,8.5,3.376,9.134,5.114,10.654  l0.846,0.738c1.738,1.521,1.307,3.13-0.959,3.577l-1.102,0.217c-2.267,0.447-2.267,1.179,0,1.626l1.102,0.219  c2.266,0.445,2.697,2.056,0.959,3.576l-0.847,0.74c-1.739,1.52-1.373,2.15,0.813,1.405l1.062-0.362  c2.186-0.744,3.364,0.434,2.619,2.616l-0.362,1.065c-0.746,2.186-0.112,2.551,1.408,0.812l0.738-0.845  c1.521-1.739,3.131-1.311,3.577,0.959l0.219,1.104c0.445,2.267,1.178,2.267,1.625,0L17.027,27c0.447-2.268,2.059-2.698,3.578-0.959  l0.74,0.845c1.521,1.739,2.152,1.374,1.406-0.812l-0.361-1.065c-0.746-2.186,0.433-3.364,2.615-2.618l1.064,0.364  c2.187,0.746,2.552,0.111,0.812-1.407l-0.845-0.74c-1.739-1.521-1.312-3.131,0.959-3.576l1.103-0.219  C30.368,16.365,30.368,15.634,28.102,15.187z M16,23.604c-4.2,0-7.603-3.4-7.603-7.604S11.8,8.397,16,8.397S23.604,11.8,23.604,16  S20.2,23.604,16,23.604z M16,9.797c-3.421,0-6.203,2.782-6.203,6.203s2.782,6.203,6.203,6.203s6.203-2.782,6.203-6.203  S19.421,9.797,16,9.797z"/>
</svg>